<?xml version="1.0" encoding="UTF-8"?>
<!-- Generator: Adobe Illustrator 27.2.0, SVG Export Plug-In . SVG Version: 6.00 Build 0)  -->
<svg xmlns="http://www.w3.org/2000/svg" xmlns:xlink="http://www.w3.org/1999/xlink" version="1.1" id="Layer_1" width="100px" height="100px" x="0px" y="0px" viewBox="0 0 324.11 320.4" style="enable-background:new 0 0 324.11 320.4;" xml:space="preserve">
<style type="text/css">
	.st0{fill:#00A7E1;}
</style>
<g>
	<path d="M308.06,98.41c-8.7-19.78-20.01-36.75-33.64-50.44c-14.06-14.1-30.74-25.33-49.58-33.36C205.94,6.57,185.37,2.5,163.7,2.5   c-21.1,0-41.4,4.24-60.33,12.61c-18.8,8.31-35.44,19.67-49.48,33.76c-14.04,14.09-25.36,30.8-33.64,49.67   c-8.32,18.98-12.54,39.34-12.54,60.53c0,21.79,4.23,42.47,12.56,61.45c8.26,18.83,19.58,35.54,33.66,49.66   c14.02,14.08,30.69,25.44,49.53,33.77c18.87,8.36,39.21,12.6,60.46,12.6h10.14l0.15-58.21H163.7c-12.46,0-25.18-2.76-37.81-8.19   c-11.07-4.76-21.59-11.96-31.29-21.4c-8.89-8.64-15.94-19.12-20.95-31.16c-5.03-12.06-7.59-25.02-7.59-38.51   c0-13.46,2.54-26.25,7.56-38c5.04-11.79,12.13-22.33,21.07-31.31c8.91-8.94,19.4-16.05,31.19-21.12c11.62-5,24.34-7.53,37.81-7.53   c13.25,0,25.97,2.58,37.82,7.68c11.49,4.94,21.98,12.12,31.17,21.34c8.78,8.83,15.89,19.36,21.12,31.3   c4.64,10.64,7.52,20.76,7.52,38.28v8.2h59.29v-8.2C320.61,136.54,316.98,118.77,308.06,98.41z"></path>
	<path class="st0" d="M164.16,93.92c-35.93,0-65.04,29.12-65.04,65.03c0,35.93,29.11,65.04,65.04,65.04   c35.93,0,65.05-29.11,65.05-65.04C229.21,123.04,200.09,93.92,164.16,93.92z"></path>
</g>
</svg>
